[Header]
FileType HTR
DataType HTRS
FileVersion 1
NumSegments 22
NumFrames 6
DataFrameRate 24
EulerRotationOrder ZYX
CalibrationUnits mm
RotationUnits Degrees
GlobalAxisofGravity Y
BoneLengthAxis Y
ScaleFactor 1.0
[SegmentNames&Hierarchy]
reference	GLOBAL
Hips	reference
Spine	Hips
Spine1	Spine
Neck	Spine1
Head	Neck
LeftShoulder	Spine1
LeftArm	LeftShoulder
LeftForeArm	LeftArm
LeftHand	LeftForeArm
RightShoulder	Spine1
RightArm	RightShoulder
RightForeArm	RightArm
RightHand	RightForeArm
LeftUpLeg	Hips
LeftLeg	LeftUpLeg
LeftFoot	LeftLeg
LeftToeBase	LeftFoot
RightUpLeg	Hips
RightLeg	RightUpLeg
RightFoot	RightLeg
RightToeBase	RightFoot
[BasePosition]
reference	0	0	0	0	0	0	1
Hips	0	0	0	0	0	0	1
Spine	0	0	0	0	-0	90	1
Spine1	0	0	0	0	0	0	1
Neck	0	0	0	-7.352327771	-7.352327771	90	1
Head	0	0	0	0	-0	90	1
LeftShoulder	0	0	0	0	0	0	1
LeftArm	0	0	0	0	0	0	1
LeftForeArm	0	0	0	0	0	0	1
LeftHand	0	0	0	0	0	0	1
RightShoulder	0	0	0	0	-0	180	1
RightArm	0	0	0	0	-0	180	1
RightForeArm	0	0	0	0	-0	180	1
RightHand	0	0	0	0	-0	180	1
LeftUpLeg	0	0	0	0	-0	-90	1
LeftLeg	0	0	0	0	-0	-90	1
LeftFoot	0	0	0	66.57146043	-66.57146043	-90	1
LeftToeBase	0	0	0	0	-90	0	1
RightUpLeg	0	0	0	0	-0	-90	1
RightLeg	0	0	0	0	-0	-90	1
RightFoot	0	0	0	66.57146043	-66.57146043	-90	1
RightToeBase	0	0	0	0	-90	0	1
[reference]
1	0	0	0	0	-0	0	1.0
2	0	0	0	0	-0	0	1.0
3	0	0	0	0	-0	0	1.0
4	0	0	0	0	-0	0	1.0
5	0	0	0	0	-0	0	1.0
6	0	0	0	0	-0	0	1.0
[Hips]
1	-1.16858995	8.728730202	6.470749855	-6.210876465	-109.7639008	8.128723145	1.0
2	-1.16858995	8.728730202	6.470749855	-6.212762833	-109.776825	8.244354248	1.0
3	-1.16858995	8.728730202	6.470749855	-6.161251068	-109.8531342	8.22872448	1.0
4	-1.16858995	8.728730202	6.470749855	-6.175437927	-109.8827515	8.269098282	1.0
5	-1.16858995	8.728730202	6.470749855	-6.051898003	-109.8699646	8.217140198	1.0
6	-1.16858995	8.728730202	6.470749855	-6.011401176	-109.8033829	8.186504364	1.0
[Spine]
1	0	0.7457100153	0	-9.926498413	0.9884895086	-88.41226196	1.0
2	0	0.7457100153	0	-10.1333456	0.9929395318	-88.42087555	1.0
3	0	0.7457100153	0	-10.30404377	0.9784545898	-88.41202545	1.0
4	0	0.7457100153	0	-10.46914673	0.9953973293	-88.35136414	1.0
5	0	0.7457100153	0	-10.61880589	1.0249331	-88.31234741	1.0
6	0	0.7457100153	0	-10.66226578	1.021103501	-88.26338196	1.0
[Spine1]
1	0	2.140589952	0	11.21992588	0.1174311712	1.68142426	1.0
2	0	2.140589952	0	11.1786232	0.1081855893	1.673346043	1.0
3	0	2.140589952	0	11.18825054	0.1135950685	1.68714726	1.0
4	0	2.140589952	0	11.1770649	0.1215073466	1.621162653	1.0
5	0	2.140589952	0	11.18235874	0.1268469095	1.59640789	1.0
6	0	2.140589952	0	11.23729515	0.1267697215	1.578695416	1.0
[Neck]
1	0	2.32246995	0	-17.05437279	1.158281207	-87.91026306	1.0
2	0	2.32246995	0	-15.33922005	-2.348961115	-87.05213165	1.0
3	0	2.32246995	0	-14.35324478	-2.503678083	-87.26338196	1.0
4	0	2.32246995	0	-13.75338936	-2.749341011	-87.43286133	1.0
5	0	2.32246995	0	-13.32629204	-2.947986126	-87.5800705	1.0
6	0	2.32246995	0	-12.97681808	-3.111920357	-87.68105316	1.0
[Head]
1	0	1.409579992	0.1818799973	1.45037055	-1.487100601	-103.0785065	1.0
2	0	1.409579992	0.1818799973	-1.538437128	1.633537412	-102.9718628	1.0
3	0	1.409579992	0.1818799973	-2.851049423	1.202131033	-102.2116089	1.0
4	0	1.409579992	0.1818799973	-3.487333775	1.098166466	-101.7283325	1.0
5	0	1.409579992	0.1818799973	-3.876880169	1.027805209	-101.3650665	1.0
6	0	1.409579992	0.1818799973	-4.374781609	0.9523565769	-101.0148468	1.0
[LeftShoulder]
1	0.3668199778	1.946700096	-0.02662999928	-15.95882225	-11.5193758	-3.269909382	1.0
2	0.3668199778	1.946700096	-0.02662999928	-15.43464184	-11.8830719	-3.510672331	1.0
3	0.3668199778	1.946700096	-0.02662999928	-15.07769299	-12.06782055	-3.740243196	1.0
4	0.3668199778	1.946700096	-0.02662999928	-14.94437695	-12.09112358	-3.833159924	1.0
5	0.3668199778	1.946700096	-0.02662999928	-14.88467121	-12.05765438	-3.912585258	1.0
6	0.3668199778	1.946700096	-0.02662999928	-14.99863338	-11.9724102	-3.875648499	1.0
[LeftArm]
1	1.140689969	0	0	39.05175781	20.37197495	-76.10835266	1.0
2	1.140689969	0	0	38.88547516	19.78463936	-76.28936005	1.0
3	1.140689969	0	0	38.78990555	19.42969322	-76.50744629	1.0
4	1.140689969	0	0	39.00471115	19.18157005	-76.79794312	1.0
5	1.140689969	0	0	39.46318054	18.88963699	-76.94284821	1.0
6	1.140689969	0	0	39.85870361	18.69358826	-77.12637329	1.0
[LeftForeArm]
1	2.749800205	0	0	-17.36532211	-13.33764935	-0.7629182935	1.0
2	2.749800205	0	0	-17.21966743	-13.12376881	-0.3581945598	1.0
3	2.749800205	0	0	-17.24100685	-13.33674717	0.1814096421	1.0
4	2.749800205	0	0	-17.33784485	-13.52272892	0.6355078816	1.0
5	2.749800205	0	0	-17.35164833	-13.82215977	0.8728073239	1.0
6	2.749800205	0	0	-17.17507172	-14.03102303	1.072529078	1.0
[LeftHand]
1	2.295179844	0	0	-16.71149826	-8.504081726	-9.965087891	1.0
2	2.295179844	0	0	-16.69806862	-7.727957726	-8.31530571	1.0
3	2.295179844	0	0	-16.7895565	-7.300170898	-6.737670422	1.0
4	2.295179844	0	0	-16.91132736	-7.209315777	-5.566020012	1.0
5	2.295179844	0	0	-16.93721581	-7.197066784	-4.900207996	1.0
6	2.295179844	0	0	-16.7377758	-7.142502785	-4.886641979	1.0
[RightShoulder]
1	-0.3601199985	1.946700096	-0.02662999928	-9.68096447	2.027703047	175.464798	1.0
2	-0.3601199985	1.946700096	-0.02662999928	-9.077457428	2.578944206	175.7169189	1.0
3	-0.3601199985	1.946700096	-0.02662999928	-8.81788063	2.875385761	175.8495483	1.0
4	-0.3601199985	1.946700096	-0.02662999928	-7.716726303	2.33005476	176.170517	1.0
5	-0.3601199985	1.946700096	-0.02662999928	-8.190919876	2.82678628	176.0025177	1.0
6	-0.3601199985	1.946700096	-0.02662999928	-8.009132385	2.683774233	176.0216827	1.0
[RightArm]
1	-1.140689969	0	0	49.13293076	-5.700695992	-97.27363586	1.0
2	-1.140689969	0	0	48.99764633	-5.259754658	-97.41327667	1.0
3	-1.140689969	0	0	49.06164551	-5.012966156	-97.47946167	1.0
4	-1.140689969	0	0	49.43906021	-3.54965663	-97.74430084	1.0
5	-1.140689969	0	0	49.05931091	-4.174902916	-97.65939331	1.0
6	-1.140689969	0	0	49.05524445	-3.8838377	-97.77957153	1.0
[RightForeArm]
1	-2.749800205	0	0	-1.484031796	10.92306995	-179.7319489	1.0
2	-2.749800205	0	0	-1.366427064	11.2532177	-180.0523071	1.0
3	-2.749800205	0	0	-1.195792198	11.37988472	-180.2150574	1.0
4	-2.749800205	0	0	-0.9840193391	11.24926186	-180.0742188	1.0
5	-2.749800205	0	0	-1.029701591	11.25984764	-180.214386	1.0
6	-2.749800205	0	0	-0.874712944	11.28165245	-180.174469	1.0
[RightHand]
1	-2.295179844	0	0	-1.21771872	8.636441231	-176.1371613	1.0
2	-2.295179844	0	0	-1.10370028	8.782607079	-176.648407	1.0
3	-2.295179844	0	0	-0.9452316761	8.865585327	-177.0469818	1.0
4	-2.295179844	0	0	-0.7556602955	8.79500103	-177.1286316	1.0
5	-2.295179844	0	0	-0.7935677767	8.866447449	-177.2293396	1.0
6	-2.295179844	0	0	-0.6390791535	8.827963829	-177.1728363	1.0
[LeftUpLeg]
1	0.9094099998	0	0	5.919778347	6.552749634	92.75772858	1.0
2	0.9094099998	0	0	5.942304611	6.845127583	92.85519409	1.0
3	0.9094099998	0	0	6.048707962	6.681891441	92.96735382	1.0
4	0.9094099998	0	0	6.152830124	6.457867622	92.9222641	1.0
5	0.9094099998	0	0	6.142539024	6.338071346	92.88906097	1.0
6	0.9094099998	0	0	6.08890152	6.385183811	92.87721252	1.0
[LeftLeg]
1	0	-4.498080254	0	1.011210322	-1.243816376	89.32478333	1.0
2	0	-4.498080254	0	0.8665583134	-1.395017862	89.29808044	1.0
3	0	-4.498080254	0	0.6474942565	-1.491248608	89.19580078	1.0
4	0	-4.498080254	0	0.3242695928	-1.35216403	89.21647644	1.0
5	0	-4.498080254	0	0.1994888037	-1.294932246	89.20147705	1.0
6	0	-4.498080254	0	0.2889466882	-1.337842703	89.20440674	1.0
[LeftFoot]
1	0	-3.729400158	0	-66.77859497	103.0103989	-22.14746094	1.0
2	0	-3.729400158	0	-67.11321259	102.9866791	-22.55045319	1.0
3	0	-3.729400158	0	-66.34815979	103.1910934	-21.73554993	1.0
4	0	-3.729400158	0	-65.78730011	103.2884293	-21.29429245	1.0
5	0	-3.729400158	0	-65.51454163	103.3278351	-21.06851196	1.0
6	0	-3.729400158	0	-65.82484436	103.2904358	-21.33620071	1.0
[LeftToeBase]
1	0	-0.5911099911	1.364109993	0	0	0	1.0
2	0	-0.5911099911	1.364109993	0	0	0	1.0
3	0	-0.5911099911	1.364109993	0	0	0	1.0
4	0	-0.5911099911	1.364109993	0	0	0	1.0
5	0	-0.5911099911	1.364109993	0	0	0	1.0
6	0	-0.5911099911	1.364109993	0	0	0	1.0
[RightUpLeg]
1	-0.9094099998	0	0	0.6815752983	-0.8220362067	90.66931915	1.0
2	-0.9094099998	0	0	0.6731101871	-0.8566949964	90.71404266	1.0
3	-0.9094099998	0	0	0.7453905344	-0.8202039003	90.77777863	1.0
4	-0.9094099998	0	0	0.8122582436	-1.012575507	90.81138611	1.0
5	-0.9094099998	0	0	0.8224825263	-0.9799566269	90.80501556	1.0
6	-0.9094099998	0	0	0.8566819429	-0.9646750689	90.77360535	1.0
[RightLeg]
1	0	-4.498080254	0	5.446146011	1.03382206	89.69792175	1.0
2	0	-4.498080254	0	5.302848816	1.003378749	89.70773315	1.0
3	0	-4.498080254	0	5.124812126	1.097547412	89.73791504	1.0
4	0	-4.498080254	0	4.932898998	0.7778883576	89.58234406	1.0
5	0	-4.498080254	0	4.775420666	0.6736727357	89.55072784	1.0
6	0	-4.498080254	0	4.713755608	0.6712661982	89.57514954	1.0
[RightFoot]
1	0	-3.729400158	0	50.65778351	60.7515564	89.42926788	1.0
2	0	-3.729400158	0	50.92815781	60.82262421	89.65283203	1.0
3	0	-3.729400158	0	50.79827881	60.80989456	89.46281433	1.0
4	0	-3.729400158	0	51.76570892	60.99193573	90.52316284	1.0
5	0	-3.729400158	0	51.92127991	61.0243721	90.65725708	1.0
6	0	-3.729400158	0	51.8581543	60.9906311	90.58494568	1.0
[RightToeBase]
1	0	-0.5911099911	1.364109993	0	0	0	1.0
2	0	-0.5911099911	1.364109993	0	0	0	1.0
3	0	-0.5911099911	1.364109993	0	0	0	1.0
4	0	-0.5911099911	1.364109993	0	0	0	1.0
5	0	-0.5911099911	1.364109993	0	0	0	1.0
6	0	-0.5911099911	1.364109993	0	0	0	1.0
[EndOfFile]
